<svg id="Layer_1" xmlns="http://www.w3.org/2000/svg" viewBox="-257.9 391.6 28 30"><style>.st0{fill:#FFFFFF;}</style><path class="st0" d="M-238.1 401l-.7-.6c-1.1-1-2.6-1.5-4-1.5-1.6 0-3.2.6-4.3 1.8-1.1 1.2-1.7 2.8-1.7 4.4 0 1.6.6 3.2 1.7 4.3 1.1 1.2 2.6 1.8 4.3 1.8 1.5 0 2.9-.6 4.1-1.6l.7-.6v3.6l-.2.1c-1.4.8-2.9 1.2-4.5 1.2-2.3 0-4.6-.9-6.3-2.6-3.5-3.5-3.5-9.1 0-12.6l.1-.1c1.7-1.7 4-2.6 6.4-2.6 1.6 0 3.1.4 4.3 1.2l.2.1v3.7zm-19.8-9.4v14.8c0 4.9 1.2 8.3 3.8 10.7 2.6 2.4 6.4 3.6 10.2 4.5 3.9-.9 7.6-2.1 10.2-4.5 2.6-2.4 3.8-5.8 3.8-10.7v-14.8h-28z"/></svg>