<?xml version="1.0" encoding="utf-8"?>
<!-- Generator: Adobe Illustrator 18.1.1, SVG Export Plug-In . SVG Version: 6.00 Build 0)  -->
<svg version="1.1" id="Layer_1" xmlns="http://www.w3.org/2000/svg" xmlns:xlink="http://www.w3.org/1999/xlink" x="0px" y="0px"
	 viewBox="0 0 40 40" enable-background="new 0 0 40 40" xml:space="preserve">
<path fill="none" stroke="#414042" stroke-width="2" stroke-miterlimit="10" d="M36.3,36.2H7.8c-0.8,0-1.5-0.7-1.5-1.7V10.6
	C6.3,9.7,6.9,9,7.8,9h28.6c0.1,0,0.2,0,0.3,0c0.7,0.1,1.2,0.8,1.2,1.6v23.9C37.8,35.4,37.1,36.2,36.3,36.2z"/>
<path fill="#FFFFFF" stroke="#414042" stroke-width="2" stroke-miterlimit="10" d="M36.1,31.2H7.9c-0.9,0-1.7-0.7-1.7-1.7V5.6
	C6.3,4.7,7,4,7.9,4h28.2c0.9,0,1.7,0.7,1.7,1.7v23.9C37.8,30.4,37.1,31.2,36.1,31.2z"/>
<line fill="none" stroke="#414042" stroke-width="2" stroke-miterlimit="10" x1="2.7" y1="10.6" x2="9.9" y2="10.6"/>
<line fill="none" stroke="#414042" stroke-width="2" stroke-miterlimit="10" x1="2.7" y1="17.6" x2="9.9" y2="17.6"/>
<line fill="none" stroke="#414042" stroke-width="2" stroke-miterlimit="10" x1="2.7" y1="24.6" x2="9.9" y2="24.6"/>
<circle fill="none" stroke="#414042" stroke-width="2" stroke-miterlimit="10" cx="22.8" cy="17.4" r="7.5"/>
</svg>
