<?xml version="1.0" encoding="utf-8"?>
<!-- Generator: Adobe Illustrator 18.1.1, SVG Export Plug-In . SVG Version: 6.00 Build 0)  -->
<svg version="1.1" id="Layer_1" xmlns="http://www.w3.org/2000/svg" xmlns:xlink="http://www.w3.org/1999/xlink" x="0px" y="0px"
	 viewBox="0 0 46.1 37.9" enable-background="new 0 0 46.1 37.9" xml:space="preserve">
<g>
	<g>
		<path fill="#B7895A" d="M3.6,22.5c0-2.1,0.3-4.2,0.9-6.2c0.6-2,1.2-3.6,1.9-4.9C7,10.2,7.9,8.9,9.1,7.6s2-2.2,2.5-2.6
			c0.5-0.4,1.2-1,2.1-1.8c0.9-0.6,1.7-0.6,2.4,0.2l1.6,1.6C18,5.5,18.1,6,18.1,6.4c0,0.4-0.2,0.8-0.6,1.1c-0.4,0.3-0.8,0.6-1.3,1
			c-0.5,0.4-1.1,1-1.9,1.8c-0.8,0.9-1.5,1.7-2.1,2.7c-0.6,0.9-1.1,2-1.6,3.4c-0.5,1.3-0.7,2.7-0.8,4.1c1.2-0.5,2.7-0.7,4.3-0.7
			c2.1,0,4,0.7,5.5,2.2c1.5,1.5,2.3,3.3,2.3,5.4c0,2.1-0.8,4-2.4,5.5c-1.6,1.5-3.7,2.3-6.1,2.3c-1.1,0-2.2-0.2-3.3-0.7
			c-1.1-0.4-2.1-1.1-3.1-2c-1-0.9-1.8-2.2-2.4-3.9C3.9,26.7,3.6,24.8,3.6,22.5z M25,22.5c0-1.8,0.2-3.5,0.5-5.2
			c0.4-1.6,0.9-3.1,1.6-4.5c0.7-1.3,1.3-2.5,1.9-3.4c0.6-1,1.4-1.9,2.4-2.9c1-1,1.6-1.6,2-1.9c0.3-0.3,0.9-0.8,1.7-1.4
			c0.9-0.6,1.7-0.6,2.4,0.2l1.6,1.6c0.4,0.5,0.5,0.9,0.5,1.3c0,0.4-0.2,0.8-0.6,1.1c-0.5,0.4-1.1,0.9-1.7,1.4
			c-0.6,0.6-1.4,1.4-2.4,2.5c-1,1.1-1.8,2.5-2.5,4.1c-0.6,1.6-1,3.2-1,4.9c1.2-0.5,2.7-0.7,4.3-0.7c2.1,0,4,0.7,5.5,2.2
			s2.3,3.3,2.3,5.4c0,2.1-0.8,4-2.4,5.5c-1.6,1.5-3.7,2.3-6.1,2.3c-1.1,0-2.2-0.2-3.3-0.7c-1.1-0.4-2.1-1.1-3.1-2
			c-1-0.9-1.8-2.2-2.5-3.9C25.3,26.7,25,24.8,25,22.5z"/>
	</g>
</g>
</svg>
